HIERARCHY
ROOT hip
{
	OFFSET 0.000000 0.000000 0.000000 
	CHANNELS 6 Xposition Yposition Zposition Xrotation Zrotation Yrotation
	JOINT abdomen
	{
		OFFSET 0.000000 3.402643 0.000000 
		CHANNELS 3 Xrotation Zrotation Yrotation
		JOINT chest
		{
			OFFSET 0.000000 8.438565 -0.680529 
			CHANNELS 3 Xrotation Zrotation Yrotation
			JOINT neck
			{
				OFFSET 0.000000 10.207942 -0.272212 
				CHANNELS 3 Xrotation Zrotation Yrotation
				JOINT head
				{
					OFFSET 0.000000 3.130431 0.000000 
					CHANNELS 3 Xrotation Zrotation Yrotation
					End Site
					{
						OFFSET 0.000000 3.130435 0.000000 
					}
				}
			}
			JOINT lCollar
			{
				OFFSET 3.470700 6.669187 -0.816635 
				CHANNELS 3 Yrotation Zrotation Xrotation
				JOINT lShldr
				{
					OFFSET 3.198488 0.000000 0.000000 
					CHANNELS 3 Zrotation Yrotation Xrotation
					JOINT lForeArm
					{
						OFFSET 10.139888 0.000000 0.000000 
						CHANNELS 3 Yrotation Zrotation Xrotation
						JOINT lHand
						{
							OFFSET 8.370511 0.000000 0.000000 
							CHANNELS 3 Zrotation Yrotation Xrotation
							End Site
							{
								OFFSET 4.083176 0.000000 0.000000 
							}
						}
					}
				}
			}
			JOINT rCollar
			{
				OFFSET -3.470700 6.669187 -0.816635 
				CHANNELS 3 Yrotation Zrotation Xrotation
				JOINT rShldr
				{
					OFFSET -3.198488 0.000000 0.000000 
					CHANNELS 3 Zrotation Yrotation Xrotation
					JOINT rForeArm
					{
						OFFSET -10.139888 0.000000 0.000000 
						CHANNELS 3 Yrotation Zrotation Xrotation
						JOINT rHand
						{
							OFFSET -8.370511 0.000000 0.000000 
							CHANNELS 3 Zrotation Yrotation Xrotation
							End Site
							{
								OFFSET -4.083176 0.000000 0.000000 
							}
						}
					}
				}
			}
		}
	}
	JOINT lThigh
	{
		OFFSET 5.308129 -1.633274 1.361059 
		CHANNELS 3 Xrotation Zrotation Yrotation
		JOINT lShin
		{
			OFFSET -2.041588 -20.007561 0.000000 
			CHANNELS 3 Xrotation Zrotation Yrotation
			JOINT lFoot
			{
				OFFSET 0.000000 -19.190928 -1.224953 
				CHANNELS 3 Xrotation Yrotation Zrotation
				End Site
				{
					OFFSET 0.000000 -2.449906 4.627600 
				}
			}
		}
	}
	JOINT rThigh
	{
		OFFSET -5.308129 -1.633274 1.361059 
		CHANNELS 3 Xrotation Zrotation Yrotation
		JOINT rShin
		{
			OFFSET 2.041588 -20.007561 0.000000 
			CHANNELS 3 Xrotation Zrotation Yrotation
			JOINT rFoot
			{
				OFFSET 0.000000 -19.190928 -1.224953 
				CHANNELS 3 Xrotation Yrotation Zrotation
				End Site
				{
					OFFSET 0.000000 -2.449906 4.627600 
				}
			}
		}
	}
}
MOTION
Frames: 8
Frame Time: 0.033333
-19.698471 52.947609 99.989731 -0.722656 6.835937 54.394535 56.008579 -23.226543 5.868683 -14.892579 2.402344 2.148437 51.063168 8.107644 2.471410 -92.919922 2.646484 45.654301 2.000000 -2.000000 0.000000 -65.312500 32.812504 -19.228514 -111.877373 0.725457 -3.216787 20.616802 42.999878 27.194496 -2.000000 2.000000 0.000000 62.978516 -21.757813 -0.374712 127.103836 -1.918083 -3.060859 -69.044640 -55.702927 82.442924 -39.422672 7.538660 11.747615 59.261452 -3.011336 -4.460225 6.300518 8.960445 -6.730103 1.160095 -2.917761 -45.524326 30.086105 4.387163 2.462551 8.395647 -8.850891 8.101128 
-19.750313 53.459682 103.697678 0.000000 6.142578 54.111328 54.572704 -24.467661 7.509541 -14.326173 3.574219 3.544922 51.063168 8.107644 2.471410 -95.048828 -1.005859 45.878906 2.000000 -2.000000 0.000000 -65.917969 34.130863 -25.175781 -117.316109 1.107045 -2.877256 15.931175 43.625622 22.587973 -2.000000 2.000000 0.000000 68.750000 -19.521482 -12.685547 122.897598 -1.766771 -3.140114 -8.488137 -72.709457 30.188890 -34.697880 3.033556 15.274706 49.083385 -3.909545 -3.826692 3.056179 3.257496 -2.575332 1.668028 -1.639449 -46.320221 29.029394 4.466201 2.367116 25.934242 -4.988994 11.024967 
-19.968437 53.609367 107.521996 0.341797 5.781244 54.014687 54.612164 -22.861738 6.737946 -14.130859 4.248047 4.970704 51.063168 8.107644 2.471410 -100.556641 -4.804687 50.087074 2.000000 -2.000000 0.000000 -68.750000 35.214844 -36.742420 -124.170723 1.351905 -2.871901 10.096597 42.777519 14.339232 -2.000000 2.000000 0.000000 71.396484 -15.683593 -23.908888 117.980347 -1.398393 -2.913473 60.243656 -54.346664 -29.134026 -25.941040 0.085651 16.984419 35.651600 -4.337297 -3.136758 2.556928 -0.371894 -0.846254 2.921513 -0.464705 -45.578121 24.433363 4.728807 1.571919 50.208553 0.231860 13.829788 
-20.368126 52.734898 111.475494 0.527344 5.791016 54.013672 55.279892 -19.198517 4.430170 -14.091797 4.921875 6.562500 51.063168 8.107644 2.471410 -104.238281 -6.962890 55.507816 2.000000 -2.000000 0.000000 -70.976563 35.214844 -45.218979 -128.913925 1.689336 -2.452022 7.897841 41.752289 8.696717 -2.000000 2.000000 0.000000 70.810547 -12.568359 -31.640623 113.772675 -1.230397 -2.942870 76.676399 -29.914194 -37.784145 -13.802999 -1.964019 18.187460 19.450886 -4.943787 -1.878609 3.040354 -3.144385 -0.229503 1.273432 -6.058726 -44.472095 35.372074 3.934619 2.586655 43.303444 1.451024 15.086751 
-20.811092 51.482281 115.476311 0.341797 5.781244 54.014687 55.946407 -14.992318 2.137544 -14.423828 5.449219 7.725536 51.063168 8.107644 2.471410 -103.144531 -7.636718 58.582691 2.000000 -2.000000 0.000000 -68.671875 32.734375 -46.738281 -130.128616 2.051645 -2.277584 12.625536 41.927151 9.025440 -2.000000 2.000000 0.000000 68.486328 -12.138672 -35.117184 111.663506 -1.151614 -3.290128 80.041664 -18.700827 -37.959389 -4.623099 -1.457024 19.150345 7.998384 -5.779586 -0.818181 3.013376 -6.271698 -1.552568 -2.697683 -14.732412 -42.339603 50.109486 2.864930 3.567186 24.663908 -2.708928 16.442051 
-21.287388 51.316837 119.506760 0.000000 5.791016 54.111332 56.649143 -11.614367 0.128822 -14.755860 5.976563 7.832032 51.063168 8.107644 2.471410 -99.755852 -7.421875 58.582726 2.000000 -2.000000 0.000000 -61.816410 28.886717 -44.619141 -129.265442 1.826755 -2.108321 20.427977 42.380444 11.451769 -2.000000 2.000000 0.000000 66.865234 -19.326172 -32.757145 112.543373 -1.169645 -2.978469 61.128330 -40.521442 -30.918835 -4.302476 2.620140 21.784611 13.121326 -5.126908 -1.521396 -2.316343 -7.010211 1.754643 -9.679408 -23.022594 -39.937527 63.122288 2.122720 4.255972 19.192339 -7.145712 16.309900 
-21.787518 51.198669 123.549911 -0.205078 5.791019 54.297848 56.728821 -9.452195 -0.258877 -15.449221 6.513672 5.595703 51.063168 8.107644 2.471410 -96.123047 -6.044921 58.691414 2.000000 -2.000000 0.000000 -54.482422 26.308594 -37.085518 -128.378708 2.172040 -2.226303 26.382402 41.760128 14.190021 -2.000000 2.000000 0.000000 63.935551 -31.669924 -25.923096 116.231117 -1.098747 -3.189300 -24.223146 -61.810459 36.699696 -2.500101 6.847897 23.491110 14.185163 -5.143240 -1.446470 -3.312412 -8.820168 4.079790 -18.145931 -30.900301 -37.095810 75.151031 0.540705 4.278505 16.600243 -12.387758 15.623710 
-22.301533 51.143528 127.589607 -0.537109 5.615243 54.434509 56.941315 -7.915768 -0.148908 -16.484375 6.904297 1.866409 51.063168 8.107644 2.471410 -93.261719 -3.212890 60.097115 2.000000 -2.000000 0.000000 -47.783199 24.277346 -22.583876 -129.266479 1.881485 -2.512122 27.200970 40.404472 16.180302 -2.000000 2.000000 0.000000 60.732422 -39.726566 -19.635147 119.395615 -1.204864 -3.214975 -70.903122 -40.762344 73.501595 1.747018 10.027790 25.123648 10.145633 -5.191594 -1.083305 -1.957008 -10.624664 5.573347 -23.281712 -34.886272 -34.059116 78.136230 0.472251 4.426198 14.290736 -15.871193 14.123752 
